<?xml version="1.0" standalone="no"?><!DOCTYPE svg PUBLIC "-//W3C//DTD SVG 1.1//EN" "http://www.w3.org/Graphics/SVG/1.1/DTD/svg11.dtd"><svg t="1618303760109" class="icon" viewBox="0 0 1024 1024" version="1.1" xmlns="http://www.w3.org/2000/svg" p-id="1182" width="200" height="200"><path d="M896 128a64 64 0 0 1 64 64v640a64 64 0 0 1-64 64H128a64 64 0 0 1-64-64V192a64 64 0 0 1 64-64h768zM288 409.6L128 569.536V832h768v-83.2l-204.8-204.8-134.4 134.4-268.8-268.8zM896 192H128v288L288 320l268.8 268.8 134.4-134.4 204.8 204.8V192z" p-id="1183"></path><path d="M774.08 356.736a44.8 44.8 0 1 0 0-89.6 44.8 44.8 0 0 0 0 89.6z" p-id="1184"></path></svg>